<svg width="180" height="180" viewBox="0 0 180 180" fill="none" xmlns="http://www.w3.org/2000/svg">
<rect width="180" height="180" rx="90" fill="#18181B"/>
<path d="M59 46.5C59 45.6716 59.6716 45 60.5 45H120.5C121.328 45 122 45.6716 122 46.5V56.3571C122 57.1856 121.328 57.8571 120.5 57.8571H97.5714V122.143H120.5C121.328 122.143 122 122.814 122 123.643V133.5C122 134.328 121.328 135 120.5 135H60.5C59.6716 135 59 134.328 59 133.5V123.643C59 122.814 59.6716 122.143 60.5 122.143H84.7142V57.8571H60.5C59.6716 57.8571 59 57.1856 59 56.3571V46.5Z" fill="white"/>
</svg>
