<svg width="707" height="169" viewBox="0 0 707 169" fill="none" xmlns="http://www.w3.org/2000/svg">
<rect x="61.4082" y="20.0612" width="20.2041" height="121.224" fill="white"/>
<path d="M21 19C21 16.2386 23.2386 14 26 14H115C117.761 14 120 16.2386 120 19V29.2041C120 31.9655 117.761 34.2041 115 34.2041H26C23.2386 34.2041 21 31.9655 21 29.2041V19Z" fill="white"/>
<rect x="21" y="135.224" width="99" height="20.2041" rx="5" fill="white"/>
<path d="M166.625 122V53.4688H181.156V122H166.625ZM227.047 68.6094C232.641 68.6094 237.141 70.1406 240.547 73.2031C243.953 76.2344 245.656 81.1094 245.656 87.8281V122H231.359V91.3906C231.359 87.6406 230.672 84.8125 229.297 82.9062C227.953 81 225.828 80.0469 222.922 80.0469C218.547 80.0469 215.562 81.5312 213.969 84.5C212.375 87.4688 211.578 91.75 211.578 97.3438V122H197.281V69.5938H208.203L210.125 76.2969H210.922C212.047 74.4844 213.438 73.0156 215.094 71.8906C216.781 70.7656 218.641 69.9375 220.672 69.4062C222.734 68.875 224.859 68.6094 227.047 68.6094ZM276.969 122.938C271.125 122.938 266.359 120.656 262.672 116.094C259.016 111.5 257.188 104.766 257.188 95.8906C257.188 86.9219 259.047 80.1406 262.766 75.5469C266.484 70.9219 271.344 68.6094 277.344 68.6094C279.844 68.6094 282.047 68.9531 283.953 69.6406C285.859 70.3281 287.5 71.25 288.875 72.4062C290.281 73.5625 291.469 74.8594 292.438 76.2969H292.906C292.719 75.2969 292.484 73.8281 292.203 71.8906C291.953 69.9219 291.828 67.9062 291.828 65.8438V49.0625H306.172V122H295.203L292.438 115.203H291.828C290.922 116.641 289.781 117.953 288.406 119.141C287.062 120.297 285.453 121.219 283.578 121.906C281.703 122.594 279.5 122.938 276.969 122.938ZM281.984 111.547C285.891 111.547 288.641 110.391 290.234 108.078C291.859 105.734 292.719 102.219 292.812 97.5312V95.9844C292.812 90.8906 292.031 87 290.469 84.3125C288.906 81.5938 286 80.2344 281.75 80.2344C278.594 80.2344 276.125 81.5938 274.344 84.3125C272.562 87.0312 271.672 90.9531 271.672 96.0781C271.672 101.203 272.562 105.062 274.344 107.656C276.156 110.25 278.703 111.547 281.984 111.547ZM342.734 68.6094C347.578 68.6094 351.75 69.5469 355.25 71.4219C358.75 73.2656 361.453 75.9531 363.359 79.4844C365.266 83.0156 366.219 87.3281 366.219 92.4219V99.3594H332.422C332.578 103.391 333.781 106.562 336.031 108.875C338.312 111.156 341.469 112.297 345.5 112.297C348.844 112.297 351.906 111.953 354.688 111.266C357.469 110.578 360.328 109.547 363.266 108.172V119.234C360.672 120.516 357.953 121.453 355.109 122.047C352.297 122.641 348.875 122.938 344.844 122.938C339.594 122.938 334.938 121.969 330.875 120.031C326.844 118.094 323.672 115.141 321.359 111.172C319.078 107.203 317.938 102.203 317.938 96.1719C317.938 90.0469 318.969 84.9531 321.031 80.8906C323.125 76.7969 326.031 73.7344 329.75 71.7031C333.469 69.6406 337.797 68.6094 342.734 68.6094ZM342.828 78.7812C340.047 78.7812 337.734 79.6719 335.891 81.4531C334.078 83.2344 333.031 86.0312 332.75 89.8438H352.812C352.781 87.7188 352.391 85.8281 351.641 84.1719C350.922 82.5156 349.828 81.2031 348.359 80.2344C346.922 79.2656 345.078 78.7812 342.828 78.7812ZM388.578 95.2344L371.703 69.5938H387.922L398.094 86.2812L408.359 69.5938H424.578L407.516 95.2344L425.375 122H409.109L398.094 104.047L387.031 122H370.812L388.578 95.2344ZM428.703 102.125V90.4062H453.875V102.125H428.703ZM500.844 106.438C500.844 110 500 113.016 498.312 115.484C496.656 117.922 494.172 119.781 490.859 121.062C487.547 122.312 483.422 122.938 478.484 122.938C474.828 122.938 471.688 122.703 469.062 122.234C466.469 121.766 463.844 120.984 461.188 119.891V108.078C464.031 109.359 467.078 110.422 470.328 111.266C473.609 112.078 476.484 112.484 478.953 112.484C481.734 112.484 483.719 112.078 484.906 111.266C486.125 110.422 486.734 109.328 486.734 107.984C486.734 107.109 486.484 106.328 485.984 105.641C485.516 104.922 484.484 104.125 482.891 103.25C481.297 102.344 478.797 101.172 475.391 99.7344C472.109 98.3594 469.406 96.9688 467.281 95.5625C465.188 94.1562 463.625 92.5 462.594 90.5938C461.594 88.6562 461.094 86.2031 461.094 83.2344C461.094 78.3906 462.969 74.75 466.719 72.3125C470.5 69.8438 475.547 68.6094 481.859 68.6094C485.109 68.6094 488.203 68.9375 491.141 69.5938C494.109 70.25 497.156 71.2969 500.281 72.7344L495.969 83.0469C493.375 81.9219 490.922 81 488.609 80.2812C486.328 79.5625 484 79.2031 481.625 79.2031C479.531 79.2031 477.953 79.4844 476.891 80.0469C475.828 80.6094 475.297 81.4688 475.297 82.625C475.297 83.4688 475.562 84.2188 476.094 84.875C476.656 85.5312 477.719 86.2656 479.281 87.0781C480.875 87.8594 483.203 88.875 486.266 90.125C489.234 91.3438 491.812 92.625 494 93.9688C496.188 95.2812 497.875 96.9219 499.062 98.8906C500.25 100.828 500.844 103.344 500.844 106.438ZM533.469 68.5156C540.5 68.5156 545.891 70.0469 549.641 73.1094C553.391 76.1719 555.266 80.8281 555.266 87.0781V122H545.281L542.516 114.875H542.141C540.641 116.75 539.109 118.281 537.547 119.469C535.984 120.656 534.188 121.531 532.156 122.094C530.125 122.656 527.656 122.938 524.75 122.938C521.656 122.938 518.875 122.344 516.406 121.156C513.969 119.969 512.047 118.156 510.641 115.719C509.234 113.25 508.531 110.125 508.531 106.344C508.531 100.781 510.484 96.6875 514.391 94.0625C518.297 91.4062 524.156 89.9375 531.969 89.6562L541.062 89.375V87.0781C541.062 84.3281 540.344 82.3125 538.906 81.0312C537.469 79.75 535.469 79.1094 532.906 79.1094C530.375 79.1094 527.891 79.4688 525.453 80.1875C523.016 80.9062 520.578 81.8125 518.141 82.9062L513.406 73.25C516.188 71.7812 519.297 70.625 522.734 69.7812C526.203 68.9375 529.781 68.5156 533.469 68.5156ZM541.062 97.7188L535.531 97.9062C530.906 98.0312 527.688 98.8594 525.875 100.391C524.094 101.922 523.203 103.938 523.203 106.438C523.203 108.625 523.844 110.188 525.125 111.125C526.406 112.031 528.078 112.484 530.141 112.484C533.203 112.484 535.781 111.578 537.875 109.766C540 107.953 541.062 105.375 541.062 102.031V97.7188ZM599.797 68.6094C605.391 68.6094 609.891 70.1406 613.297 73.2031C616.703 76.2344 618.406 81.1094 618.406 87.8281V122H604.109V91.3906C604.109 87.6406 603.422 84.8125 602.047 82.9062C600.703 81 598.578 80.0469 595.672 80.0469C591.297 80.0469 588.312 81.5312 586.719 84.5C585.125 87.4688 584.328 91.75 584.328 97.3438V122H570.031V69.5938H580.953L582.875 76.2969H583.672C584.797 74.4844 586.188 73.0156 587.844 71.8906C589.531 70.7656 591.391 69.9375 593.422 69.4062C595.484 68.875 597.609 68.6094 599.797 68.6094Z" fill="white"/>
</svg>
